REM DIRINDEX 1\2\6,1\2\7,1\2\8,1\3\9,1\3\10,1\3\11,1\4\12,1\4\13,1\4\14,1\5\15,1\5\16,1\5\17,1\5\18
REM DIRNAME folder01,folder02,folder03,folder04,folder05,folder06,folder07,folder08,folder09,folder10,folder11,folder12,folder13,folder14,folder15,folder16,folder17,folder18
TITLE ""
FILE "2Q_t_0459-0476.mp3" MP3
  TRACK 01 AUDIO
    TITLE "13:cjc019_2976"
    INDEX 01 00:00:00
  TRACK 02 AUDIO
    TITLE "0:"
    INDEX 01 00:01:13
  TRACK 03 AUDIO
    TITLE "14:cjc019_2977"
    INDEX 01 00:01:71
  TRACK 04 AUDIO
    TITLE "0:"
    INDEX 01 00:05:30
  TRACK 05 AUDIO
    TITLE "13:cjc019_2978"
    INDEX 01 00:06:08
  TRACK 06 AUDIO
    TITLE "0:"
    INDEX 01 00:07:27
  TRACK 07 AUDIO
    TITLE "14:cjc019_2979"
    INDEX 01 00:08:11
  TRACK 08 AUDIO
    TITLE "0:"
    INDEX 01 00:12:16
  TRACK 09 AUDIO
    TITLE "13:cjc019_2980"
    INDEX 01 00:12:69
  TRACK 10 AUDIO
    TITLE "0:"
    INDEX 01 00:14:00
  TRACK 11 AUDIO
    TITLE "14:cjc019_2981"
    INDEX 01 00:14:56
  TRACK 12 AUDIO
    TITLE "0:"
    INDEX 01 00:16:73
  TRACK 13 AUDIO
    TITLE "13:cjc019_2982"
    INDEX 01 00:17:57
  TRACK 14 AUDIO
    TITLE "0:"
    INDEX 01 00:18:72
  TRACK 15 AUDIO
    TITLE "14:cjc019_2983"
    INDEX 01 00:19:54
  TRACK 16 AUDIO
    TITLE "0:"
    INDEX 01 00:26:64
  TRACK 17 AUDIO
    TITLE "13:cjc019_2984"
    INDEX 01 00:27:47
  TRACK 18 AUDIO
    TITLE "0:"
    INDEX 01 00:29:01
  TRACK 19 AUDIO
    TITLE "14:cjc019_2985"
    INDEX 01 00:29:58
  TRACK 20 AUDIO
    TITLE "0:"
    INDEX 01 00:31:22
  TRACK 21 AUDIO
    TITLE "13:cjc019_2986"
    INDEX 01 00:32:01
  TRACK 22 AUDIO
    TITLE "0:"
    INDEX 01 00:33:13
  TRACK 23 AUDIO
    TITLE "14:cjc019_2987"
    INDEX 01 00:33:69
  TRACK 24 AUDIO
    TITLE "0:"
    INDEX 01 00:36:58
  TRACK 25 AUDIO
    TITLE "13:cjc019_2988"
    INDEX 01 00:37:42
  TRACK 26 AUDIO
    TITLE "0:"
    INDEX 01 00:38:49
  TRACK 27 AUDIO
    TITLE "14:cjc019_2989"
    INDEX 01 00:39:29
  TRACK 28 AUDIO
    TITLE "0:"
    INDEX 01 00:42:57
  TRACK 29 AUDIO
    TITLE "13:cjc019_2990"
    INDEX 01 00:43:42
  TRACK 30 AUDIO
    TITLE "0:"
    INDEX 01 00:44:65
  TRACK 31 AUDIO
    TITLE "14:cjc019_2991"
    INDEX 01 00:45:43
  TRACK 32 AUDIO
    TITLE "0:"
    INDEX 01 00:50:01
  TRACK 33 AUDIO
    TITLE "13:cjc019_2992"
    INDEX 01 00:50:54
  TRACK 34 AUDIO
    TITLE "0:"
    INDEX 01 00:52:04
  TRACK 35 AUDIO
    TITLE "14:cjc019_2993"
    INDEX 01 00:52:65
  TRACK 36 AUDIO
    TITLE "0:"
    INDEX 01 00:58:40
  TRACK 37 AUDIO
    TITLE "13:cjc019_2994"
    INDEX 01 00:59:22
  TRACK 38 AUDIO
    TITLE "0:"
    INDEX 01 01:00:39
  TRACK 39 AUDIO
    TITLE "14:cjc019_2995"
    INDEX 01 01:01:27
  TRACK 40 AUDIO
    TITLE "0:"
    INDEX 01 01:04:70
  TRACK 41 AUDIO
    TITLE "13:cjc019_2996"
    INDEX 01 01:05:46
  TRACK 42 AUDIO
    TITLE "0:"
    INDEX 01 01:06:73
  TRACK 43 AUDIO
    TITLE "14:cjc019_2997"
    INDEX 01 01:07:53
  TRACK 44 AUDIO
    TITLE "0:"
    INDEX 01 01:09:16
  TRACK 45 AUDIO
    TITLE "13:cjc019_2998"
    INDEX 01 01:09:69
  TRACK 46 AUDIO
    TITLE "0:"
    INDEX 01 01:11:05
  TRACK 47 AUDIO
    TITLE "14:cjc019_2999"
    INDEX 01 01:11:62
  TRACK 48 AUDIO
    TITLE "0:"
    INDEX 01 01:15:46
  TRACK 49 AUDIO
    TITLE "13:cjc019_3000"
    INDEX 01 01:16:16
  TRACK 50 AUDIO
    TITLE "0:"
    INDEX 01 01:17:35
  TRACK 51 AUDIO
    TITLE "14:cjc019_3001"
    INDEX 01 01:18:17
  TRACK 52 AUDIO
    TITLE "0:"
    INDEX 01 01:22:19
  TRACK 53 AUDIO
    TITLE "13:cjc019_3002"
    INDEX 01 01:22:74
  TRACK 54 AUDIO
    TITLE "0:"
    INDEX 01 01:24:28
  TRACK 55 AUDIO
    TITLE "14:cjc019_3003"
    INDEX 01 01:25:09
  TRACK 56 AUDIO
    TITLE "0:"
    INDEX 01 01:28:57
  TRACK 57 AUDIO
    TITLE "13:cjc019_3004"
    INDEX 01 01:29:31
  TRACK 58 AUDIO
    TITLE "0:"
    INDEX 01 01:30:52
  TRACK 59 AUDIO
    TITLE "14:cjc019_3005"
    INDEX 01 01:31:34
  TRACK 60 AUDIO
    TITLE "0:"
    INDEX 01 01:35:16
  TRACK 61 AUDIO
    TITLE "13:cjc019_3006"
    INDEX 01 01:35:73
  TRACK 62 AUDIO
    TITLE "0:"
    INDEX 01 01:37:07
  TRACK 63 AUDIO
    TITLE "14:cjc019_3007"
    INDEX 01 01:37:64
  TRACK 64 AUDIO
    TITLE "0:"
    INDEX 01 01:39:43
  TRACK 65 AUDIO
    TITLE "13:cjc019_3008"
    INDEX 01 01:40:27
  TRACK 66 AUDIO
    TITLE "0:"
    INDEX 01 01:41:48
  TRACK 67 AUDIO
    TITLE "14:cjc019_3009"
    INDEX 01 01:42:28
  TRACK 68 AUDIO
    TITLE "0:"
    INDEX 01 01:45:53
  TRACK 69 AUDIO
    TITLE "13:cjc019_3010"
    INDEX 01 01:46:27
  TRACK 70 AUDIO
    TITLE "0:"
    INDEX 01 01:47:46
  TRACK 71 AUDIO
    TITLE "14:cjc019_3011"
    INDEX 01 01:48:26
  TRACK 72 AUDIO
    TITLE "0:"
    INDEX 01 01:51:21
